<svg xmlns="http://www.w3.org/2000/svg" xmlns:xlink="http://www.w3.org/1999/xlink" width="66.259" height="65.679" viewBox="0 0 66.259 65.679">
  <defs>
    <linearGradient id="linear-gradient" x1="0.905" y1="0.279" x2="0.133" y2="1.301" gradientUnits="objectBoundingBox">
      <stop offset="0" stop-color="#630460"/>
      <stop offset="1" stop-color="#ec008c"/>
    </linearGradient>
  </defs>
  <g id="atomic-icon" transform="translate(0 -0.001)">
    <g id="Group_798" data-name="Group 798" transform="translate(26.334 25.756)">
      <g id="Group_797" data-name="Group 797">
        <path id="Path_1107" data-name="Path 1107" d="M212.023,201.258a8.529,8.529,0,1,0,8.53,8.529A8.539,8.539,0,0,0,212.023,201.258Zm0,13.831a5.3,5.3,0,1,1,5.3-5.3A5.308,5.308,0,0,1,212.023,215.089Z" transform="translate(-203.494 -201.258)" fill="url(#linear-gradient)"/>
      </g>
    </g>
    <g id="Group_800" data-name="Group 800" transform="translate(0 0.001)">
      <g id="Group_799" data-name="Group 799">
        <path id="Path_1108" data-name="Path 1108" d="M66.038,21.777c.628-4.616-.093-8.542-2.086-11.443a5.734,5.734,0,0,0-10.219-5.18c-5.4-.27-12.021,1.716-18.87,5.672C23.17,4.068,12.582,3.256,7.09,8.75c-2.387,2.387-3.623,5.8-3.618,9.929A5.736,5.736,0,0,0,5.737,29.685l.1,0a51.162,51.162,0,0,0,3.33,6.841C2.407,48.217,1.6,58.8,7.09,64.3c2.424,2.424,5.839,3.621,9.9,3.621,5.147,0,11.337-1.921,17.87-5.7,6.534,3.776,12.723,5.7,17.871,5.7,4.065,0,7.481-1.2,9.9-3.621,5.494-5.494,4.68-16.082-2.08-27.775A41.608,41.608,0,0,0,66.038,21.777ZM58.725,5.466a2.509,2.509,0,1,1-2.509,2.509A2.512,2.512,0,0,1,58.725,5.466ZM53,8.357a5.732,5.732,0,0,0,8.722,4.507,13.716,13.716,0,0,1,1.116,8.478A36.712,36.712,0,0,1,58.614,33.38a72.557,72.557,0,0,0-9.293-11.314A72.615,72.615,0,0,0,38,12.77C43.514,9.816,48.717,8.284,53,8.357ZM5.737,26.458a2.509,2.509,0,1,1,2.509-2.509A2.512,2.512,0,0,1,5.737,26.458Zm3.19,2.256A5.734,5.734,0,0,0,6.7,18.295a10.28,10.28,0,0,1,2.671-7.262C13.5,6.9,22.108,7.63,31.72,12.772A75.075,75.075,0,0,0,11.111,33.381,46.366,46.366,0,0,1,8.926,28.714Zm.445,33.3c-4.128-4.126-3.4-12.736,1.74-22.348a72.6,72.6,0,0,0,9.294,11.314A72.619,72.619,0,0,0,31.72,60.276C22.108,65.417,13.5,66.143,9.372,62.015ZM22.688,48.7a68.42,68.42,0,0,1-9.76-12.175A71.3,71.3,0,0,1,34.864,14.588a68.429,68.429,0,0,1,12.175,9.76A68.346,68.346,0,0,1,56.8,36.524,68.344,68.344,0,0,1,47.039,48.7a68.424,68.424,0,0,1-12.175,9.76A68.419,68.419,0,0,1,22.688,48.7ZM60.356,62.015c-4.128,4.127-12.738,3.4-22.349-1.74a72.6,72.6,0,0,0,11.314-9.294,72.545,72.545,0,0,0,9.293-11.313C63.757,49.279,64.483,57.888,60.356,62.015Z" transform="translate(0 -2.239)" fill="url(#linear-gradient)"/>
      </g>
    </g>
  </g>
</svg>
