<svg xmlns="http://www.w3.org/2000/svg" xmlns:xlink="http://www.w3.org/1999/xlink" width="69.071" height="65.678" viewBox="0 0 69.071 65.678">
  <defs>
    <linearGradient id="linear-gradient" x1="0.657" y1="0.237" x2="0.135" y2="1.061" gradientUnits="objectBoundingBox">
      <stop offset="0" stop-color="#630460"/>
      <stop offset="1" stop-color="#ec008c"/>
    </linearGradient>
  </defs>
  <g id="brush-icon" transform="translate(0 0.001)">
    <g id="Group_439" data-name="Group 439" transform="translate(0 -0.001)">
      <g id="Group_438" data-name="Group 438">
        <path id="Path_942" data-name="Path 942" d="M68.13,13.516c-1.981-1.981-5.955-.851-12.507,3.558a134.7,134.7,0,0,0-18.8,15.975C27.106,42.769,19.717,52.312,17.256,58.2A8.565,8.565,0,0,0,16,57.854a9.872,9.872,0,0,0-7.587,1.765,11.033,11.033,0,0,0-4.256,6.223A18.171,18.171,0,0,1,.389,72.929,1.613,1.613,0,0,0,.536,75.18a12.235,12.235,0,0,0,8.243,3.073,14.938,14.938,0,0,0,8.644-2.867A17.35,17.35,0,0,0,19.814,73.3a10.29,10.29,0,0,0,2.763-8.583c5.781-2.072,15.858-9.738,26.019-19.9a134.7,134.7,0,0,0,15.975-18.8C68.98,19.472,70.111,15.5,68.13,13.516ZM17.455,71.1a14.057,14.057,0,0,1-1.906,1.66c-3.741,2.671-8.321,2.98-11.648.923a21.3,21.3,0,0,0,3.381-7.049h0q.011-.042.02-.085a7.86,7.86,0,0,1,2.984-4.307,6.642,6.642,0,0,1,5.087-1.226,4.947,4.947,0,0,1,3.275,2.223C20.077,65.518,19.575,68.825,17.455,71.1Zm4.024-9.41a6,6,0,0,0-1.433-1.786,38.8,38.8,0,0,1,4.83-8.193l5.053,5.053A38.086,38.086,0,0,1,21.479,61.692Zm11.06-6.877-5.707-5.707c.986-1.269,2.053-2.584,3.19-3.929l6.449,6.449Q34.424,53.358,32.538,54.815ZM61.4,24.945A135.219,135.219,0,0,1,46.316,42.539c-2.56,2.56-5.041,4.888-7.4,6.974l-6.78-6.78c2.15-2.433,4.5-4.929,6.969-7.4A135.272,135.272,0,0,1,56.7,20.243c6.464-4.473,8.695-4.48,9.123-4.421C65.883,16.25,65.875,18.481,61.4,24.945Z" transform="translate(0.001 -12.575)" fill="url(#linear-gradient)"/>
      </g>
    </g>
    <g id="Group_441" data-name="Group 441" transform="translate(9.605 53.969)">
      <g id="Group_440" data-name="Group 440">
        <path id="Path_943" data-name="Path 943" d="M77.681,412.835a1.613,1.613,0,0,0-2.19.635,1.163,1.163,0,0,1-.156.219,7.7,7.7,0,0,1-.929.8,6.105,6.105,0,0,1-2,.95,1.613,1.613,0,1,0,.816,3.12,9.317,9.317,0,0,0,3.061-1.445,14.948,14.948,0,0,0,1.418-1.233,4.391,4.391,0,0,0,.618-.859A1.613,1.613,0,0,0,77.681,412.835Z" transform="translate(-71.198 -412.635)" fill="url(#linear-gradient)"/>
      </g>
    </g>
  </g>
</svg>
