<svg xmlns="http://www.w3.org/2000/svg" xmlns:xlink="http://www.w3.org/1999/xlink" width="83.944" height="64.796" viewBox="0 0 83.944 64.796">
  <defs>
    <linearGradient id="linear-gradient" x1="1" y1="0.235" x2="0.271" y2="0.853" gradientUnits="objectBoundingBox">
      <stop offset="0" stop-color="#630460"/>
      <stop offset="1" stop-color="#ec008c"/>
    </linearGradient>
  </defs>
  <g id="camera-icon" transform="translate(0 0)">
    <g id="Group_568" data-name="Group 568" transform="translate(20.288 15.141)">
      <g id="Group_567" data-name="Group 567">
        <path id="Path_994" data-name="Path 994" d="M146.175,152.46a21.684,21.684,0,1,0,21.684,21.684A21.709,21.709,0,0,0,146.175,152.46Zm0,39.915a18.231,18.231,0,1,1,18.231-18.231A18.252,18.252,0,0,1,146.175,192.375Z" transform="translate(-124.491 -152.46)" fill="url(#linear-gradient)"/>
      </g>
    </g>
    <g id="Group_570" data-name="Group 570" transform="translate(28.442 23.435)">
      <g id="Group_569" data-name="Group 569">
        <path id="Path_995" data-name="Path 995" d="M187.474,201.914A13.53,13.53,0,1,0,201,215.444,13.545,13.545,0,0,0,187.474,201.914Zm0,23.788a10.259,10.259,0,1,1,10.259-10.259A10.27,10.27,0,0,1,187.474,225.7Z" transform="translate(-173.944 -201.914)" fill="url(#linear-gradient)"/>
      </g>
    </g>
    <g id="Group_572" data-name="Group 572" transform="translate(0 0)">
      <g id="Group_571" data-name="Group 571">
        <path id="Path_996" data-name="Path 996" d="M78.524,67.567h-22.1l-2.257-6.148a4.629,4.629,0,0,0-4.33-3.023H34.11a4.629,4.629,0,0,0-4.33,3.023l-2.257,6.148h-7.51V65.158a3.527,3.527,0,0,0-3.523-3.523h-5.2a3.527,3.527,0,0,0-3.523,3.523v2.41H5.42A5.427,5.427,0,0,0,0,72.988v44.784a5.427,5.427,0,0,0,5.42,5.42h73.1a5.427,5.427,0,0,0,5.42-5.42V72.988A5.427,5.427,0,0,0,78.524,67.567Zm-45.352-4.9a1,1,0,0,1,.938-.655H49.834a1,1,0,0,1,.938.655l1.8,4.9h-21.2ZM11.2,65.158a.091.091,0,0,1,.09-.09h5.2a.091.091,0,0,1,.09.09v2.41H11.2ZM3.614,81.241H8.966v28.277H3.614Zm76.717,36.531a1.809,1.809,0,0,1-1.807,1.807H5.42a1.809,1.809,0,0,1-1.807-1.807v-4.64h7.159a1.807,1.807,0,0,0,1.807-1.807V79.434a1.807,1.807,0,0,0-1.807-1.807H3.614v-4.64A1.809,1.809,0,0,1,5.42,71.181h73.1a1.809,1.809,0,0,1,1.807,1.807v4.64H73.172a1.807,1.807,0,0,0-1.807,1.807v31.891a1.807,1.807,0,0,0,1.807,1.807h7.159v4.64Zm0-8.253H74.979V81.241h5.352Z" transform="translate(0 -58.396)" fill="url(#linear-gradient)"/>
      </g>
    </g>
    <g id="Group_574" data-name="Group 574" transform="translate(35.303 30.311)">
      <g id="Group_573" data-name="Group 573">
        <path id="Path_997" data-name="Path 997" d="M222.14,243.425a6.693,6.693,0,0,0-6.685,6.685,1.635,1.635,0,1,0,3.271,0,3.418,3.418,0,0,1,3.414-3.414,1.635,1.635,0,0,0,0-3.271Z" transform="translate(-215.455 -243.425)" fill="url(#linear-gradient)"/>
      </g>
    </g>
  </g>
</svg>
