<svg xmlns="http://www.w3.org/2000/svg" xmlns:xlink="http://www.w3.org/1999/xlink" width="115.389" height="65.403" viewBox="0 0 115.389 65.403">
  <defs>
    <linearGradient id="linear-gradient" x1="0.789" x2="0.322" y2="1" gradientUnits="objectBoundingBox">
      <stop offset="0" stop-color="#630460"/>
      <stop offset="1" stop-color="#ec008c"/>
    </linearGradient>
  </defs>
  <g id="eye-icon" transform="translate(0 0)">
    <g id="Group_495" data-name="Group 495" transform="translate(0 0)">
      <g id="Group_494" data-name="Group 494">
        <path id="Path_956" data-name="Path 956" d="M113.516,138.166A71.42,71.42,0,0,0,89.258,118.3a69.985,69.985,0,0,0-30.673-7.4c-.3-.008-1.487-.008-1.784,0a69.989,69.989,0,0,0-30.673,7.4A71.419,71.419,0,0,0,1.87,138.166a8.822,8.822,0,0,0,0,10.865,71.42,71.42,0,0,0,24.258,19.861,69.985,69.985,0,0,0,30.673,7.4c.3.008,1.487.008,1.784,0a69.989,69.989,0,0,0,30.673-7.4,71.42,71.42,0,0,0,24.258-19.861A8.822,8.822,0,0,0,113.516,138.166ZM28.224,164.693A66.7,66.7,0,0,1,5.571,146.144a4.134,4.134,0,0,1,0-5.091,66.212,66.212,0,0,1,30.28-21.778,32.658,32.658,0,0,0,0,48.648A66.2,66.2,0,0,1,28.224,164.693Zm29.469,6.92A28.014,28.014,0,1,1,85.707,143.6,28.046,28.046,0,0,1,57.693,171.613Zm52.122-25.468a66.1,66.1,0,0,1-30.272,21.771,32.658,32.658,0,0,0-.01-48.643,66.248,66.248,0,0,1,30.282,21.78A4.135,4.135,0,0,1,109.815,146.144Z" transform="translate(0.002 -110.897)" fill="url(#linear-gradient)"/>
      </g>
    </g>
    <g id="Group_497" data-name="Group 497" transform="translate(45.706 20.713)">
      <g id="Group_496" data-name="Group 496">
        <path id="Path_957" data-name="Path 957" d="M214.793,202.8a11.988,11.988,0,1,0,11.988,11.988A12,12,0,0,0,214.793,202.8Zm0,19.283a7.295,7.295,0,1,1,7.294-7.295A7.3,7.3,0,0,1,214.793,222.087Z" transform="translate(-202.805 -202.804)" fill="url(#linear-gradient)"/>
      </g>
    </g>
  </g>
</svg>
