<svg xmlns="http://www.w3.org/2000/svg" xmlns:xlink="http://www.w3.org/1999/xlink" width="1920.496" height="475.86" viewBox="0 0 1920.496 475.86">
  <defs>
    <clipPath id="clip-path">
      <rect x="69" width="1920.496" height="475.86" fill="none"/>
    </clipPath>
    <clipPath id="clip-path-2">
      <rect id="Rectangle_215" data-name="Rectangle 215" width="2009.025" height="391.341" fill="none" stroke="#707070" stroke-width="1"/>
    </clipPath>
  </defs>
  <g id="footer-intersection" transform="translate(-69)" clip-path="url(#clip-path)" style="isolation: isolate">
    <g id="Group_827" data-name="Group 827" transform="translate(69.025 -5724.808)">
      <g id="intersection-2-simple" transform="translate(-69.025 5809.327)" clip-path="url(#clip-path-2)">
        <g id="intersection-1-simple" transform="translate(-262.758 9.93)">
          <path id="Path_829" data-name="Path 829" d="M0,0,253.221,2370.042H.222Z" transform="translate(0 381.407) rotate(-90)" fill="#2e2e2e"/>
        </g>
      </g>
      <g id="Geometry" transform="matrix(0.998, -0.07, 0.07, 0.998, 38.841, 5860.102)">
        <path id="Path_696" data-name="Path 696" d="M694.34,69.46" transform="translate(359.374 -58.619)" fill="none" stroke="#2e2e2e" stroke-linejoin="round" stroke-width="0.85"/>
        <path id="Path_697" data-name="Path 697" d="M694.34,69.46" transform="translate(359.374 -58.619)" fill="none" stroke="#2e2e2e" stroke-linejoin="round" stroke-width="0.85"/>
        <path id="Path_698" data-name="Path 698" d="M575.59,68.79" transform="translate(284.917 -59.159)" fill="none" stroke="#2e2e2e" stroke-linejoin="round" stroke-width="0.85"/>
        <path id="Path_699" data-name="Path 699" d="M1107.389,98.733,1007.605,71.16,944.77,119.206Z" transform="translate(591.693 56.661)" fill="none" stroke="#2e2e2e" stroke-linejoin="round" stroke-width="0.85"/>
        <path id="Path_700" data-name="Path 700" d="M946.249,84.793,903.1,81.83,855.43,121.437Z" transform="translate(535.677 65.27)" fill="none" stroke="#2e2e2e" stroke-linejoin="round" stroke-width="0.85"/>
        <path id="Path_701" data-name="Path 701" d="M812.5,47.87l69.847,100.97,47.671-39.607Z" transform="translate(508.759 37.868)" fill="none" stroke="#2e2e2e" stroke-linejoin="round" stroke-width="0.85"/>
        <path id="Path_702" data-name="Path 702" d="M894.032,148.84,824.185,47.87,793.76,112.2Z" transform="translate(497.009 37.868)" fill="none" stroke="#2e2e2e" stroke-linejoin="round" stroke-width="0.85"/>
        <path id="Path_703" data-name="Path 703" d="M755.43,92.356l62.363,19.84L848.218,47.87Z" transform="translate(472.976 37.868)" fill="none" stroke="#2e2e2e" stroke-linejoin="round" stroke-width="0.85"/>
        <path id="Path_704" data-name="Path 704" d="M817.753,92.33,755.39,72.49l.065,40.818Z" transform="translate(472.951 57.734)" fill="none" stroke="#2e2e2e" stroke-linejoin="round" stroke-width="0.85"/>
        <path id="Path_705" data-name="Path 705" d="M706.77,42.49l79.17,95.025L785.875,96.7Z" transform="translate(442.466 33.527)" fill="none" stroke="#2e2e2e" stroke-linejoin="round" stroke-width="0.85"/>
        <path id="Path_706" data-name="Path 706" d="M805.03,137.515,725.86,42.49l-49.64,74.047Z" transform="translate(423.311 33.527)" fill="none" stroke="#2e2e2e" stroke-linejoin="round" stroke-width="0.85"/>
        <path id="Path_707" data-name="Path 707" d="M674.1,90.68l3.449,25.857,49.64-74.047Z" transform="translate(421.982 33.527)" fill="none" stroke="#2e2e2e" stroke-linejoin="round" stroke-width="0.85"/>
        <path id="Path_708" data-name="Path 708" d="M695.024,95.017,691.591,69.16,646.1,109.978Z" transform="translate(404.425 55.047)" fill="none" stroke="#2e2e2e" stroke-linejoin="round" stroke-width="0.85"/>
        <path id="Path_709" data-name="Path 709" d="M582.1,64.49l104.128,49.256,45.491-40.818Z" transform="translate(364.297 51.279)" fill="none" stroke="#2e2e2e" stroke-linejoin="round" stroke-width="0.85"/>
        <path id="Path_710" data-name="Path 710" d="M700.848,113.746,596.719,64.49,558.68,72.784Z" transform="translate(349.613 51.279)" fill="none" stroke="#2e2e2e" stroke-linejoin="round" stroke-width="0.85"/>
        <path id="Path_711" data-name="Path 711" d="M529.31,27.16,577.1,102.906l38.039-8.294Z" transform="translate(331.197 21.157)" fill="none" stroke="#2e2e2e" stroke-linejoin="round" stroke-width="0.85"/>
        <path id="Path_712" data-name="Path 712" d="M1038.1,118.888l10.852-32.4,21.851,57.8Z" transform="translate(650.212 69.031)" fill="none" stroke="#2e2e2e" stroke-linejoin="round" stroke-width="0.85"/>
        <path id="Path_713" data-name="Path 713" d="M1107.389,86.49l-10.836,32.4L944.77,106.98Z" transform="translate(591.693 69.031)" fill="none" stroke="#2e2e2e" stroke-linejoin="round" stroke-width="0.85"/>
        <path id="Path_714" data-name="Path 714" d="M939.43,179.593l8.688-81.763L1099.9,109.737Z" transform="translate(588.345 78.181)" fill="none" stroke="#2e2e2e" stroke-linejoin="round" stroke-width="0.85"/>
        <path id="Path_715" data-name="Path 715" d="M965.674,109.353,957,191.115,911.3,83.55Z" transform="translate(570.708 66.658)" fill="none" stroke="#2e2e2e" stroke-linejoin="round" stroke-width="0.85"/>
        <path id="Path_716" data-name="Path 716" d="M881.93,146.665,929.715,83.55l45.7,107.565Z" transform="translate(552.292 66.658)" fill="none" stroke="#2e2e2e" stroke-linejoin="round" stroke-width="0.85"/>
        <path id="Path_717" data-name="Path 717" d="M946.249,83.55l-47.769,63.115L855.43,120.194Z" transform="translate(535.677 66.658)" fill="none" stroke="#2e2e2e" stroke-linejoin="round" stroke-width="0.85"/>
        <path id="Path_718" data-name="Path 718" d="M802.77,103.75l85.678.145L931.5,130.366Z" transform="translate(502.659 82.958)" fill="none" stroke="#2e2e2e" stroke-linejoin="round" stroke-width="0.85"/>
        <path id="Path_719" data-name="Path 719" d="M894.032,120.194l-85.678-.145L793.76,83.55Z" transform="translate(497.009 66.658)" fill="none" stroke="#2e2e2e" stroke-linejoin="round" stroke-width="0.85"/>
        <path id="Path_720" data-name="Path 720" d="M764.39,146.665,812.175,83.55l14.594,36.5Z" transform="translate(478.594 66.658)" fill="none" stroke="#2e2e2e" stroke-linejoin="round" stroke-width="0.85"/>
        <path id="Path_721" data-name="Path 721" d="M817.728,83.55l-47.785,63.115L755.43,104.528Z" transform="translate(472.976 66.658)" fill="none" stroke="#2e2e2e" stroke-linejoin="round" stroke-width="0.85"/>
        <path id="Path_722" data-name="Path 722" d="M706.1,176.923,786.36,95.16,800.873,137.3Z" transform="translate(442.046 76.027)" fill="none" stroke="#2e2e2e" stroke-linejoin="round" stroke-width="0.85"/>
        <path id="Path_723" data-name="Path 723" d="M805.03,104.528l-80.26,81.763L676.22,83.55Z" transform="translate(423.311 66.658)" fill="none" stroke="#2e2e2e" stroke-linejoin="round" stroke-width="0.85"/>
        <path id="Path_724" data-name="Path 724" d="M646.1,176.66l49.005-93.11,48.55,102.741Z" transform="translate(404.425 66.658)" fill="none" stroke="#2e2e2e" stroke-linejoin="round" stroke-width="0.85"/>
        <path id="Path_725" data-name="Path 725" d="M695.049,83.55,646.06,176.66l.065-78.149Z" transform="translate(404.4 66.658)" fill="none" stroke="#2e2e2e" stroke-linejoin="round" stroke-width="0.85"/>
        <path id="Path_726" data-name="Path 726" d="M594.1,97.7l84.6-5.872-.065,78.149Z" transform="translate(371.821 73.34)" fill="none" stroke="#2e2e2e" stroke-linejoin="round" stroke-width="0.85"/>
        <path id="Path_727" data-name="Path 727" d="M700.848,110.123,616.243,116,558.68,69.16Z" transform="translate(349.613 55.047)" fill="none" stroke="#2e2e2e" stroke-linejoin="round" stroke-width="0.85"/>
        <path id="Path_728" data-name="Path 728" d="M529.31,158.277,577.1,69.16,634.659,116Z" transform="translate(331.197 55.047)" fill="none" stroke="#2e2e2e" stroke-linejoin="round" stroke-width="0.85"/>
        <path id="Path_729" data-name="Path 729" d="M1124.394,181.675l-47.785-63.115-47.769,96.109Z" transform="translate(644.406 94.908)" fill="none" stroke="#2e2e2e" stroke-linejoin="round" stroke-width="0.85"/>
        <path id="Path_730" data-name="Path 730" d="M1043.906,104.49,1028.84,226.023l47.769-96.109Z" transform="translate(644.406 83.555)" fill="none" stroke="#2e2e2e" stroke-linejoin="round" stroke-width="0.85"/>
        <path id="Path_731" data-name="Path 731" d="M1039.271,226.023l15.066-121.533L1012.1,179.043Z" transform="translate(633.91 83.555)" fill="none" stroke="#2e2e2e" stroke-linejoin="round" stroke-width="0.85"/>
        <path id="Path_732" data-name="Path 732" d="M939.43,174.363l118.234,4.68L1099.9,104.49Z" transform="translate(588.345 83.555)" fill="none" stroke="#2e2e2e" stroke-linejoin="round" stroke-width="0.85"/>
        <path id="Path_733" data-name="Path 733" d="M1090.618,147.84l-118.235-4.68L886.77,182.767Z" transform="translate(555.327 114.758)" fill="none" stroke="#2e2e2e" stroke-linejoin="round" stroke-width="0.85"/>
        <path id="Path_734" data-name="Path 734" d="M881.93,118.56l7.875,84.057,85.613-39.607Z" transform="translate(552.292 94.908)" fill="none" stroke="#2e2e2e" stroke-linejoin="round" stroke-width="0.85"/>
        <path id="Path_735" data-name="Path 735" d="M918.879,202.617l-7.859-84.057L835.43,186.951Z" transform="translate(523.137 94.908)" fill="none" stroke="#2e2e2e" stroke-linejoin="round" stroke-width="0.85"/>
        <path id="Path_736" data-name="Path 736" d="M802.77,103.83l53.138,95.007L931.5,130.446Z" transform="translate(502.659 83.022)" fill="none" stroke="#2e2e2e" stroke-linejoin="round" stroke-width="0.85"/>
        <path id="Path_737" data-name="Path 737" d="M855.868,198.837,802.73,103.83l11.991,62.483Z" transform="translate(502.633 83.022)" fill="none" stroke="#2e2e2e" stroke-linejoin="round" stroke-width="0.85"/>
        <path id="Path_738" data-name="Path 738" d="M764.39,130.446l74.37,35.867L826.769,103.83Z" transform="translate(478.594 83.022)" fill="none" stroke="#2e2e2e" stroke-linejoin="round" stroke-width="0.85"/>
        <path id="Path_739" data-name="Path 739" d="M855.179,154.427l-74.37-35.867L738.1,206.231Z" transform="translate(462.11 94.908)" fill="none" stroke="#2e2e2e" stroke-linejoin="round" stroke-width="0.85"/>
        <path id="Path_740" data-name="Path 740" d="M706.1,158.185l52.064,48.046,42.709-87.671Z" transform="translate(442.046 94.908)" fill="none" stroke="#2e2e2e" stroke-linejoin="round" stroke-width="0.85"/>
        <path id="Path_741" data-name="Path 741" d="M766.043,188.536,713.979,140.49,693.43,162.028Z" transform="translate(434.102 112.604)" fill="none" stroke="#2e2e2e" stroke-linejoin="round" stroke-width="0.85"/>
        <path id="Path_742" data-name="Path 742" d="M646.1,135.16l77.006,31.169,20.549-21.538Z" transform="translate(404.425 108.303)" fill="none" stroke="#2e2e2e" stroke-linejoin="round" stroke-width="0.85"/>
        <path id="Path_743" data-name="Path 743" d="M740.591,166.329,663.585,135.16,618.11,197.191Z" transform="translate(386.876 108.303)" fill="none" stroke="#2e2e2e" stroke-linejoin="round" stroke-width="0.85"/>
        <path id="Path_744" data-name="Path 744" d="M594.1,95.16l39.081,134.307,45.458-62.031Z" transform="translate(371.821 76.027)" fill="none" stroke="#2e2e2e" stroke-linejoin="round" stroke-width="0.85"/>
        <path id="Path_745" data-name="Path 745" d="M655.308,229.467,616.243,95.16l-57.563,105.4Z" transform="translate(349.613 76.027)" fill="none" stroke="#2e2e2e" stroke-linejoin="round" stroke-width="0.85"/>
        <path id="Path_746" data-name="Path 746" d="M529.31,137.442,577.1,200.557l57.564-105.4Z" transform="translate(331.197 76.027)" fill="none" stroke="#2e2e2e" stroke-linejoin="round" stroke-width="0.85"/>
        <path id="Path_747" data-name="Path 747" d="M1124.394,153.56l-47.785,63.115-47.769-30.1Z" transform="translate(644.406 123.15)" fill="none" stroke="#2e2e2e" stroke-linejoin="round" stroke-width="0.85"/>
        <path id="Path_748" data-name="Path 748" d="M999.48,201.933l47.769-30.1,47.769,30.1Z" transform="translate(625.997 137.892)" fill="none" stroke="#2e2e2e" stroke-linejoin="round" stroke-width="0.85"/>
        <path id="Path_749" data-name="Path 749" d="M1047.215,192.81l-47.785,30.1,20.614-77.083Z" transform="translate(625.966 116.913)" fill="none" stroke="#2e2e2e" stroke-linejoin="round" stroke-width="0.85"/>
        <path id="Path_750" data-name="Path 750" d="M940.71,222.913l116.152-77.083-20.614,77.083Z" transform="translate(589.148 116.913)" fill="none" stroke="#2e2e2e" stroke-linejoin="round" stroke-width="0.85"/>
        <path id="Path_751" data-name="Path 751" d="M1090.618,145.83,974.449,222.913,886.77,180.758Z" transform="translate(555.327 116.913)" fill="none" stroke="#2e2e2e" stroke-linejoin="round" stroke-width="0.85"/>
        <path id="Path_752" data-name="Path 752" d="M881.93,207.315,889.8,165.16l87.679,42.155Z" transform="translate(552.292 132.51)" fill="none" stroke="#2e2e2e" stroke-linejoin="round" stroke-width="0.85"/>
        <path id="Path_753" data-name="Path 753" d="M918.879,172.156l-7.859,42.155L835.43,156.49Z" transform="translate(523.137 125.514)" fill="none" stroke="#2e2e2e" stroke-linejoin="round" stroke-width="0.85"/>
        <path id="Path_754" data-name="Path 754" d="M823.16,214.311l19.963-57.821,75.591,57.821Z" transform="translate(515.443 125.514)" fill="none" stroke="#2e2e2e" stroke-linejoin="round" stroke-width="0.85"/>
        <path id="Path_755" data-name="Path 755" d="M851.247,171.014l-19.963,57.821L810.1,138.49Z" transform="translate(507.255 110.99)" fill="none" stroke="#2e2e2e" stroke-linejoin="round" stroke-width="0.85"/>
        <path id="Path_756" data-name="Path 756" d="M764.39,228.835l74.37-90.345,21.184,90.345Z" transform="translate(478.594 110.99)" fill="none" stroke="#2e2e2e" stroke-linejoin="round" stroke-width="0.85"/>
        <path id="Path_757" data-name="Path 757" d="M855.179,138.49l-74.37,90.345L738.1,190.294Z" transform="translate(462.11 110.99)" fill="none" stroke="#2e2e2e" stroke-linejoin="round" stroke-width="0.85"/>
        <path id="Path_758" data-name="Path 758" d="M705.63,205.7l52.829-38.541L801.168,205.7Z" transform="translate(441.751 134.124)" fill="none" stroke="#2e2e2e" stroke-linejoin="round" stroke-width="0.85"/>
        <path id="Path_759" data-name="Path 759" d="M766.043,179,713.2,217.539,693.43,152.49Z" transform="translate(434.102 122.287)" fill="none" stroke="#2e2e2e" stroke-linejoin="round" stroke-width="0.85"/>
        <path id="Path_760" data-name="Path 760" d="M646.85,217.539l75.786-65.049L742.4,217.539Z" transform="translate(404.896 122.287)" fill="none" stroke="#2e2e2e" stroke-linejoin="round" stroke-width="0.85"/>
        <path id="Path_761" data-name="Path 761" d="M740.591,152.49l-75.786,65.049-46.7-34.2Z" transform="translate(386.876 122.287)" fill="none" stroke="#2e2e2e" stroke-linejoin="round" stroke-width="0.85"/>
        <path id="Path_762" data-name="Path 762" d="M588.09,203.765l48.859-34.2,46.679,34.2Z" transform="translate(368.053 136.061)" fill="none" stroke="#2e2e2e" stroke-linejoin="round" stroke-width="0.85"/>
        <path id="Path_763" data-name="Path 763" d="M655.308,182.471l-48.859,34.2L558.68,153.56Z" transform="translate(349.613 123.15)" fill="none" stroke="#2e2e2e" stroke-linejoin="round" stroke-width="0.85"/>
        <path id="Path_764" data-name="Path 764" d="M529.31,216.675,577.1,153.56l47.769,63.115Z" transform="translate(331.197 123.15)" fill="none" stroke="#2e2e2e" stroke-linejoin="round" stroke-width="0.85"/>
        <path id="Path_765" data-name="Path 765" d="M575.59,68.79" transform="translate(284.917 -59.159)" fill="none" stroke="#2e2e2e" stroke-linejoin="round" stroke-width="0.85"/>
        <line id="Line_134" data-name="Line 134" x1="96.612" y1="23.544" transform="translate(716.127)" fill="none" stroke="#2e2e2e" stroke-linejoin="round" stroke-width="0.85"/>
        <path id="Path_766" data-name="Path 766" d="M382.345,52.028,336.431,30.49,303.24,106.254Z" transform="translate(189.45 23.844)" fill="none" stroke="#2e2e2e" stroke-linejoin="round" stroke-width="0.85"/>
        <path id="Path_767" data-name="Path 767" d="M323.68,30.49l45.914,21.538,69.359-9.486Z" transform="translate(202.266 23.844)" fill="none" stroke="#2e2e2e" stroke-linejoin="round" stroke-width="0.85"/>
        <path id="Path_768" data-name="Path 768" d="M404.989,94.837l16.27-57.677L351.9,46.646Z" transform="translate(219.96 29.226)" fill="none" stroke="#2e2e2e" stroke-linejoin="round" stroke-width="0.85"/>
        <path id="Path_769" data-name="Path 769" d="M400.84,66.749l-16.27,57.676L475.617.49Z" transform="translate(240.445 -0.364)" fill="none" stroke="#2e2e2e" stroke-linejoin="round" stroke-width="0.85"/>
        <path id="Path_770" data-name="Path 770" d="M534.189,116.006,475.617.49,384.57,124.426Z" transform="translate(240.445 -0.364)" fill="none" stroke="#2e2e2e" stroke-linejoin="round" stroke-width="0.85"/>
        <path id="Path_771" data-name="Path 771" d="M440.57.49l58.572,115.516,38.039-91.954Z" transform="translate(275.557 -0.364)" fill="none" stroke="#2e2e2e" stroke-linejoin="round" stroke-width="0.85"/>
        <path id="Path_772" data-name="Path 772" d="M562.378,38.014,514.609,13.53,476.57,105.484Z" transform="translate(298.129 10.159)" fill="none" stroke="#2e2e2e" stroke-linejoin="round" stroke-width="0.85"/>
        <path id="Path_773" data-name="Path 773" d="M147.37,84.793l43.164-2.963,47.655,39.607Z" transform="translate(91.719 65.27)" fill="none" stroke="#2e2e2e" stroke-linejoin="round" stroke-width="0.85"/>
        <path id="Path_774" data-name="Path 774" d="M291.419,47.87,221.555,148.84,173.9,109.233Z" transform="translate(108.353 37.868)" fill="none" stroke="#2e2e2e" stroke-linejoin="round" stroke-width="0.85"/>
        <path id="Path_775" data-name="Path 775" d="M203.24,148.84,273.087,47.87,303.512,112.2Z" transform="translate(126.749 37.868)" fill="none" stroke="#2e2e2e" stroke-linejoin="round" stroke-width="0.85"/>
        <path id="Path_776" data-name="Path 776" d="M338.942,92.356,276.6,112.2,246.17,47.87Z" transform="translate(153.667 37.868)" fill="none" stroke="#2e2e2e" stroke-linejoin="round" stroke-width="0.85"/>
        <path id="Path_777" data-name="Path 777" d="M264.91,92.33l62.363-19.84-.065,40.818Z" transform="translate(165.417 57.734)" fill="none" stroke="#2e2e2e" stroke-linejoin="round" stroke-width="0.85"/>
        <path id="Path_778" data-name="Path 778" d="M382.376,42.49,303.19,137.515l.081-40.818Z" transform="translate(189.419 33.527)" fill="none" stroke="#2e2e2e" stroke-linejoin="round" stroke-width="0.85"/>
        <path id="Path_779" data-name="Path 779" d="M303.24,137.515,382.41,42.49l49.64,74.047Z" transform="translate(189.45 33.527)" fill="none" stroke="#2e2e2e" stroke-linejoin="round" stroke-width="0.85"/>
        <path id="Path_780" data-name="Path 780" d="M404.989,90.68l-3.449,25.857L351.9,42.49Z" transform="translate(219.96 33.527)" fill="none" stroke="#2e2e2e" stroke-linejoin="round" stroke-width="0.85"/>
        <path id="Path_781" data-name="Path 781" d="M382.45,95.017,385.9,69.16l45.491,40.818Z" transform="translate(239.115 55.047)" fill="none" stroke="#2e2e2e" stroke-linejoin="round" stroke-width="0.85"/>
        <path id="Path_782" data-name="Path 782" d="M534.189,64.49,430.061,113.746,384.57,72.928Z" transform="translate(240.445 51.279)" fill="none" stroke="#2e2e2e" stroke-linejoin="round" stroke-width="0.85"/>
        <path id="Path_783" data-name="Path 783" d="M412.57,113.746,516.7,64.49l38.04,8.294Z" transform="translate(258.001 51.279)" fill="none" stroke="#2e2e2e" stroke-linejoin="round" stroke-width="0.85"/>
        <path id="Path_784" data-name="Path 784" d="M562.378,27.16l-47.769,75.746L476.57,94.612Z" transform="translate(298.129 21.157)" fill="none" stroke="#2e2e2e" stroke-linejoin="round" stroke-width="0.85"/>
        <path id="Path_785" data-name="Path 785" d="M212.712,146.665,164.943,83.55l-45.7,107.565Z" transform="translate(74.081 66.658)" fill="none" stroke="#2e2e2e" stroke-linejoin="round" stroke-width="0.85"/>
        <path id="Path_786" data-name="Path 786" d="M147.37,83.55l47.785,63.115,43.034-26.471Z" transform="translate(91.719 66.658)" fill="none" stroke="#2e2e2e" stroke-linejoin="round" stroke-width="0.85"/>
        <path id="Path_787" data-name="Path 787" d="M305.469,103.75l-85.694.145L176.74,130.366Z" transform="translate(110.134 82.958)" fill="none" stroke="#2e2e2e" stroke-linejoin="round" stroke-width="0.85"/>
        <path id="Path_788" data-name="Path 788" d="M203.24,120.194l85.678-.145,14.594-36.5Z" transform="translate(126.749 66.658)" fill="none" stroke="#2e2e2e" stroke-linejoin="round" stroke-width="0.85"/>
        <path id="Path_789" data-name="Path 789" d="M318.263,146.665,270.494,83.55,255.9,120.05Z" transform="translate(159.768 66.658)" fill="none" stroke="#2e2e2e" stroke-linejoin="round" stroke-width="0.85"/>
        <path id="Path_790" data-name="Path 790" d="M264.91,83.55,312.7,146.665l14.513-42.137Z" transform="translate(165.417 66.658)" fill="none" stroke="#2e2e2e" stroke-linejoin="round" stroke-width="0.85"/>
        <path id="Path_791" data-name="Path 791" d="M389.053,176.923,308.777,95.16,294.28,137.3Z" transform="translate(183.832 76.027)" fill="none" stroke="#2e2e2e" stroke-linejoin="round" stroke-width="0.85"/>
        <path id="Path_792" data-name="Path 792" d="M303.24,104.528l80.26,81.763L432.05,83.55Z" transform="translate(189.45 66.658)" fill="none" stroke="#2e2e2e" stroke-linejoin="round" stroke-width="0.85"/>
        <path id="Path_793" data-name="Path 793" d="M450.125,176.66,401.12,83.55,352.57,186.291Z" transform="translate(220.38 66.658)" fill="none" stroke="#2e2e2e" stroke-linejoin="round" stroke-width="0.85"/>
        <path id="Path_794" data-name="Path 794" d="M382.45,83.55l49.005,93.11-.065-78.149Z" transform="translate(239.115 66.658)" fill="none" stroke="#2e2e2e" stroke-linejoin="round" stroke-width="0.85"/>
        <path id="Path_795" data-name="Path 795" d="M497.134,97.7l-84.6-5.872.065,78.149Z" transform="translate(257.976 73.34)" fill="none" stroke="#2e2e2e" stroke-linejoin="round" stroke-width="0.85"/>
        <path id="Path_796" data-name="Path 796" d="M412.57,110.123l84.6,5.872L554.738,69.16Z" transform="translate(258.001 55.047)" fill="none" stroke="#2e2e2e" stroke-linejoin="round" stroke-width="0.85"/>
        <path id="Path_797" data-name="Path 797" d="M569.9,158.277,522.133,69.16,464.57,116Z" transform="translate(290.605 55.047)" fill="none" stroke="#2e2e2e" stroke-linejoin="round" stroke-width="0.85"/>
        <path id="Path_798" data-name="Path 798" d="M46.57,147.84,164.8,143.16l85.613,39.607Z" transform="translate(28.516 114.758)" fill="none" stroke="#2e2e2e" stroke-linejoin="round" stroke-width="0.85"/>
        <path id="Path_799" data-name="Path 799" d="M212.712,118.56l-7.858,84.057L119.24,163.01Z" transform="translate(74.081 94.908)" fill="none" stroke="#2e2e2e" stroke-linejoin="round" stroke-width="0.85"/>
        <path id="Path_800" data-name="Path 800" d="M171.91,202.617l7.858-84.057,75.574,68.391Z" transform="translate(107.105 94.908)" fill="none" stroke="#2e2e2e" stroke-linejoin="round" stroke-width="0.85"/>
        <path id="Path_801" data-name="Path 801" d="M305.469,103.83l-53.154,95.007L176.74,130.446Z" transform="translate(110.134 83.022)" fill="none" stroke="#2e2e2e" stroke-linejoin="round" stroke-width="0.85"/>
        <path id="Path_802" data-name="Path 802" d="M223.24,198.837l53.138-95.007-11.991,62.483Z" transform="translate(139.29 83.022)" fill="none" stroke="#2e2e2e" stroke-linejoin="round" stroke-width="0.85"/>
        <path id="Path_803" data-name="Path 803" d="M322.884,130.446,248.53,166.313l11.991-62.483Z" transform="translate(155.147 83.022)" fill="none" stroke="#2e2e2e" stroke-linejoin="round" stroke-width="0.85"/>
        <path id="Path_804" data-name="Path 804" d="M248.57,154.427l74.37-35.867,42.709,87.671Z" transform="translate(155.172 94.908)" fill="none" stroke="#2e2e2e" stroke-linejoin="round" stroke-width="0.85"/>
        <path id="Path_805" data-name="Path 805" d="M389.053,158.185l-52.064,48.046L294.28,118.56Z" transform="translate(183.832 94.908)" fill="none" stroke="#2e2e2e" stroke-linejoin="round" stroke-width="0.85"/>
        <path id="Path_806" data-name="Path 806" d="M320.57,188.536l52.064-48.046,20.549,21.538Z" transform="translate(200.316 112.604)" fill="none" stroke="#2e2e2e" stroke-linejoin="round" stroke-width="0.85"/>
        <path id="Path_807" data-name="Path 807" d="M450.125,135.16,373.1,166.329,352.57,144.791Z" transform="translate(220.38 108.303)" fill="none" stroke="#2e2e2e" stroke-linejoin="round" stroke-width="0.85"/>
        <path id="Path_808" data-name="Path 808" d="M365.24,166.329l77.006-31.169L487.7,197.191Z" transform="translate(228.324 108.303)" fill="none" stroke="#2e2e2e" stroke-linejoin="round" stroke-width="0.85"/>
        <path id="Path_809" data-name="Path 809" d="M497.109,95.16,458.029,229.467,412.57,167.436Z" transform="translate(258.001 76.027)" fill="none" stroke="#2e2e2e" stroke-linejoin="round" stroke-width="0.85"/>
        <path id="Path_810" data-name="Path 810" d="M440.56,229.467,479.624,95.16l57.564,105.4Z" transform="translate(275.551 76.027)" fill="none" stroke="#2e2e2e" stroke-linejoin="round" stroke-width="0.85"/>
        <path id="Path_811" data-name="Path 811" d="M569.9,137.442l-47.769,63.115L464.57,95.16Z" transform="translate(290.605 76.027)" fill="none" stroke="#2e2e2e" stroke-linejoin="round" stroke-width="0.85"/>
        <path id="Path_812" data-name="Path 812" d="M95.974,201.933l-47.769-30.1L.42,201.933Z" transform="translate(-0.42 137.892)" fill="none" stroke="#2e2e2e" stroke-linejoin="round" stroke-width="0.85"/>
        <path id="Path_813" data-name="Path 813" d="M29.83,192.81l47.785,30.1L57,145.83Z" transform="translate(18.02 116.913)" fill="none" stroke="#2e2e2e" stroke-linejoin="round" stroke-width="0.85"/>
        <path id="Path_814" data-name="Path 814" d="M162.682,222.913,46.53,145.83l20.614,77.083Z" transform="translate(28.491 116.913)" fill="none" stroke="#2e2e2e" stroke-linejoin="round" stroke-width="0.85"/>
        <path id="Path_815" data-name="Path 815" d="M46.57,145.83l116.168,77.083,87.679-42.155Z" transform="translate(28.516 116.913)" fill="none" stroke="#2e2e2e" stroke-linejoin="round" stroke-width="0.85"/>
        <path id="Path_816" data-name="Path 816" d="M213.508,207.315l-7.858-42.155L117.97,207.315Z" transform="translate(73.285 132.51)" fill="none" stroke="#2e2e2e" stroke-linejoin="round" stroke-width="0.85"/>
        <path id="Path_817" data-name="Path 817" d="M171.91,172.156l7.858,42.155,75.574-57.821Z" transform="translate(107.105 125.514)" fill="none" stroke="#2e2e2e" stroke-linejoin="round" stroke-width="0.85"/>
        <path id="Path_818" data-name="Path 818" d="M272.278,214.311,252.314,156.49,176.74,214.311Z" transform="translate(110.134 125.514)" fill="none" stroke="#2e2e2e" stroke-linejoin="round" stroke-width="0.85"/>
        <path id="Path_819" data-name="Path 819" d="M223.24,171.014,243.2,228.835l21.184-90.345Z" transform="translate(139.29 110.99)" fill="none" stroke="#2e2e2e" stroke-linejoin="round" stroke-width="0.85"/>
        <path id="Path_820" data-name="Path 820" d="M331.048,228.835,256.694,138.49,235.51,228.835Z" transform="translate(146.983 110.99)" fill="none" stroke="#2e2e2e" stroke-linejoin="round" stroke-width="0.85"/>
        <path id="Path_821" data-name="Path 821" d="M248.57,138.49l74.37,90.345,42.709-38.541Z" transform="translate(155.172 110.99)" fill="none" stroke="#2e2e2e" stroke-linejoin="round" stroke-width="0.85"/>
        <path id="Path_822" data-name="Path 822" d="M389.818,205.7,336.989,167.16,294.28,205.7Z" transform="translate(183.832 134.124)" fill="none" stroke="#2e2e2e" stroke-linejoin="round" stroke-width="0.85"/>
        <path id="Path_823" data-name="Path 823" d="M320.57,179l52.845,38.541,19.768-65.049Z" transform="translate(200.316 122.287)" fill="none" stroke="#2e2e2e" stroke-linejoin="round" stroke-width="0.85"/>
        <path id="Path_824" data-name="Path 824" d="M448.588,217.539,372.8,152.49,353.05,217.539Z" transform="translate(220.681 122.287)" fill="none" stroke="#2e2e2e" stroke-linejoin="round" stroke-width="0.85"/>
        <path id="Path_825" data-name="Path 825" d="M365.24,152.49l75.786,65.049,46.679-34.2Z" transform="translate(228.324 122.287)" fill="none" stroke="#2e2e2e" stroke-linejoin="round" stroke-width="0.85"/>
        <path id="Path_826" data-name="Path 826" d="M507.358,203.765,458.5,169.56l-46.679,34.2Z" transform="translate(257.53 136.061)" fill="none" stroke="#2e2e2e" stroke-linejoin="round" stroke-width="0.85"/>
        <path id="Path_827" data-name="Path 827" d="M440.56,182.471l48.859,34.2,47.769-63.115Z" transform="translate(275.551 123.15)" fill="none" stroke="#2e2e2e" stroke-linejoin="round" stroke-width="0.85"/>
        <path id="Path_828" data-name="Path 828" d="M566.128,216.675,518.359,153.56,470.59,216.675Z" transform="translate(294.38 123.15)" fill="none" stroke="#2e2e2e" stroke-linejoin="round" stroke-width="0.85"/>
        <line id="Line_135" data-name="Line 135" x2="69.717" y2="32.651" transform="translate(1699.083 155.394)" fill="none" stroke="#2e2e2e" stroke-linejoin="round" stroke-width="0.85"/>
        <line id="Line_136" data-name="Line 136" y1="25.279" x2="47.785" transform="translate(1721.015 188.045)" fill="none" stroke="#2e2e2e" stroke-linejoin="round" stroke-width="0.85"/>
        <line id="Line_137" data-name="Line 137" y1="88.539" transform="translate(1768.8 188.045)" fill="none" stroke="#2e2e2e" stroke-linejoin="round" stroke-width="0.85"/>
        <line id="Line_138" data-name="Line 138" x1="93.585" y1="88.539" transform="translate(1768.8 188.045)" fill="none" stroke="#2e2e2e" stroke-linejoin="round" stroke-width="0.85"/>
        <line id="Line_139" data-name="Line 139" x2="93.585" transform="translate(1768.8 276.583)" fill="none" stroke="#2e2e2e" stroke-linejoin="round" stroke-width="0.85"/>
        <line id="Line_140" data-name="Line 140" x2="129.559" transform="translate(1721.015 339.825)" fill="none" stroke="#2e2e2e" stroke-linejoin="round" stroke-width="0.85"/>
        <line id="Line_141" data-name="Line 141" x2="81.773" y2="63.242" transform="translate(1768.8 276.583)" fill="none" stroke="#2e2e2e" stroke-linejoin="round" stroke-width="0.85"/>
        <line id="Line_142" data-name="Line 142" x1="11.812" y2="63.242" transform="translate(1850.573 276.583)" fill="none" stroke="#2e2e2e" stroke-linejoin="round" stroke-width="0.85"/>
        <line id="Line_143" data-name="Line 143" x1="82.75" transform="translate(1850.573 339.825)" fill="none" stroke="#2e2e2e" stroke-linejoin="round" stroke-width="0.85"/>
        <line id="Line_144" data-name="Line 144" x2="70.937" y2="63.242" transform="translate(1862.385 276.583)" fill="none" stroke="#2e2e2e" stroke-linejoin="round" stroke-width="0.85"/>
      </g>
    </g>
  </g>
</svg>
