<svg xmlns="http://www.w3.org/2000/svg" xmlns:xlink="http://www.w3.org/1999/xlink" width="580.25" height="1603.967" viewBox="0 0 580.25 1603.967">
  <defs>
    <clipPath id="clip-path">
      <rect x="422" y="609" width="580.25" height="1603.967" fill="none"/>
    </clipPath>
  </defs>
  <g id="molecule-1" transform="translate(-422 -609)" clip-path="url(#clip-path)" style="isolation: isolate">
    <g id="molecule-1-2" data-name="molecule-1" transform="translate(-927.609 -127.463) rotate(-7)">
      <path id="Path_681" data-name="Path 681" d="M1588.324,583.149a240.683,240.683,0,0,0-99.269,21.362l-96.273-166.689a241.648,241.648,0,1,0-381.8-220.287H818.82A241.648,241.648,0,1,0,437.257,437.822L340.985,604.511a241.648,241.648,0,1,0,0,440.573l96.273,166.737a241.648,241.648,0,1,0,381.8,220.238h192.4a241.648,241.648,0,1,0,381.8-220.238l96.273-166.737a241.648,241.648,0,1,0,99.269-461.935Zm-237.347,604.459a241.648,241.648,0,0,0-339.757,196.122H818.82a241.648,241.648,0,0,0-339.757-196.122l-96.224-166.689a241.648,241.648,0,0,0,0-392.244l96.224-166.689A241.648,241.648,0,0,0,818.82,265.865h192.4a241.648,241.648,0,0,0,339.758,196.122L1447.2,628.676a241.648,241.648,0,0,0,0,392.243Z" transform="matrix(0.574, 0.819, -0.819, 0.574, 2220.657, 530)" fill="#ec008c"/>
    </g>
  </g>
</svg>
